<?xml version="1.0" standalone="no"?><!DOCTYPE svg PUBLIC "-//W3C//DTD SVG 1.1//EN" "http://www.w3.org/Graphics/SVG/1.1/DTD/svg11.dtd"><svg t="1677681004885" class="icon" viewBox="0 0 1024 1024" version="1.1" xmlns="http://www.w3.org/2000/svg" p-id="1430" xmlns:xlink="http://www.w3.org/1999/xlink" width="128" height="128"><path d="M932 815H92V175h80v560h760z" fill="#3FA9F5" p-id="1431"></path><path d="M439.5 307.1h14.3v319.1h-14.3z" fill="#3FA9F5" p-id="1432"></path><path d="M470.8 267.1h-48.2c-12.7 0-23 10.4-23 23v353.1c0 12.7 10.4 23 23 23h48.2c12.7 0 23-10.4 23-23V290.1c0-12.6-10.4-23-23-23z" fill="#3FA9F5" p-id="1433"></path><path d="M744.1 399.2h14.3v227h-14.3z" fill="#3FA9F5" p-id="1434"></path><path d="M780.7 359.2h-58.9c-9.7 0-17.7 8-17.7 17.7v271.6c0 9.7 8 17.7 17.7 17.7h58.9c9.7 0 17.7-8 17.7-17.7V376.9c0-9.7-7.9-17.7-17.7-17.7z" fill="#3FA9F5" p-id="1435"></path><path d="M591.8 491.3h14.3v134.9h-14.3z" fill="#3FA9F5" p-id="1436"></path><path d="M633.7 451.3h-69.5c-6.8 0-12.4 5.6-12.4 12.4v190.1c0 6.8 5.6 12.4 12.4 12.4h69.5c6.8 0 12.4-5.6 12.4-12.4V463.7c0-6.8-5.6-12.4-12.4-12.4z" fill="#3FA9F5" p-id="1437"></path><path d="M287.2 307.1h14.3v319.1h-14.3z" fill="#3FA9F5" p-id="1438"></path><path d="M318.4 267.1h-48.2c-12.7 0-23 10.4-23 23v353.1c0 12.7 10.4 23 23 23h48.2c12.7 0 23-10.4 23-23V290.1c0.1-12.6-10.3-23-23-23z" fill="#3FA9F5" p-id="1439"></path></svg>