<?xml version="1.0" standalone="no"?><!DOCTYPE svg PUBLIC "-//W3C//DTD SVG 1.1//EN" "http://www.w3.org/Graphics/SVG/1.1/DTD/svg11.dtd"><svg t="1677070912530" class="icon" viewBox="0 0 1077 1024" version="1.1" xmlns="http://www.w3.org/2000/svg" p-id="1016" width="67.3125" height="64" xmlns:xlink="http://www.w3.org/1999/xlink"><path d="M403.941053 237.675789c-7.841684 1.077895-15.710316 1.643789-23.578948 1.64379a165.052632 165.052632 0 0 1-117.706105-48.586105c-37.079579-37.187368-54.164211-88.818526-46.834526-141.608421A26.947368 26.947368 0 0 1 238.753684 26.138947a166.858105 166.858105 0 0 1 141.258105 46.942316c37.106526 37.187368 54.191158 88.818526 46.834527 141.608421a26.893474 26.893474 0 0 1-22.905263 22.986105" fill="#88C057" p-id="1017"></path><path d="M191.919158 273.488842c60.820211-16.707368 126.733474-2.694737 183.18821 38.426947 56.427789-41.121684 122.394947-55.188211 183.188211-38.426947 126.868211 35.058526 196.338526 193.347368 154.893474 352.87579-35.705263 137.350737-140.314947 233.283368-254.464 233.283368h-0.026948a194.694737 194.694737 0 0 1-83.590737-18.944 194.748632 194.748632 0 0 1-83.617684 18.944c-114.122105 0-218.758737-95.932632-254.464-233.283368-41.445053-159.528421 28.025263-317.817263 154.893474-352.87579" fill="#ED7161" p-id="1018"></path><path d="M978.189474 553.121684c-23.983158-21.584842-37.187368-49.798737-37.187369-79.467789v-44.894316c0-79.090526-55.269053-147.429053-128.646737-163.031579a53.786947 53.786947 0 0 1 47.804632-29.345684c14.901895 0 26.947368-11.991579 26.947368-26.785684a26.866526 26.866526 0 0 0-26.947368-26.785685 107.573895 107.573895 0 0 0-104.259368 81.300211c-78.012632 11.425684-138.24 78.201263-138.266948 158.908631v50.768843a104.178526 104.178526 0 0 1-35.462737 77.797052 294.292211 294.292211 0 0 0-99.247158 217.168842c-1.077895 116.224 87.147789 217.869474 205.204211 236.463158 31.043368 4.904421 61.736421 7.383579 91.189895 7.383579h0.026947c83.375158 0 154.704842-19.644632 206.309053-56.778105 58.933895-42.415158 90.085053-106.172632 90.085052-184.400842a294.265263 294.265263 0 0 0-97.549473-218.300632" fill="#EEAF4B" p-id="1019"></path></svg>