<?xml version="1.0" standalone="no"?><!DOCTYPE svg PUBLIC "-//W3C//DTD SVG 1.1//EN" "http://www.w3.org/Graphics/SVG/1.1/DTD/svg11.dtd"><svg t="1677060599360" class="icon" viewBox="0 0 1024 1024" version="1.1" xmlns="http://www.w3.org/2000/svg" p-id="1102" xmlns:xlink="http://www.w3.org/1999/xlink" width="200" height="200"><path d="M512 909.3C312.8 909.3 150.8 771 150.8 601s162-308.3 361.2-308.3S873.2 431 873.2 601 711.2 909.3 512 909.3z" fill="#835AA3" p-id="1103"></path><path d="M512 309.3c189.9 0 344.5 130.8 344.5 291.6S701.9 892.5 512 892.5 167.5 761.7 167.5 600.9 322.1 309.3 512 309.3m0-33.4c-208.7 0-377.9 145.5-377.9 325.1S303.3 926 512 926s377.9-145.5 377.9-325.1-169.2-325-377.9-325z" fill="#454A57" p-id="1104"></path><path d="M471 259.1V141.8c0-14.9 12.1-27.1 27.1-27.1h44c9 0 17.1 4.3 22.3 11.7 5.1 7.4 6.3 16.5 3.1 24.9l-40.6 107.8H471z" fill="#895628" p-id="1105"></path><path d="M542.1 131.5c4.7 0 7.4 2.8 8.5 4.5 1.2 1.7 2.8 5.1 1.2 9.5l-36.5 96.9h-27.5V141.8c0-5.7 4.6-10.3 10.3-10.3h44m0-33.5h-44c-24.2 0-43.8 19.6-43.8 43.8v134.1h84.1L583 157.3c10.9-28.7-10.3-59.3-40.9-59.3z" fill="#454A57" p-id="1106"></path><path d="M308.8 416.5c-35.6 0-64.2-14.2-78.6-39-25.5-44.2 2.3-108.3 62-142.7 24.2-14 50.5-21.4 76-21.4 35.6 0 64.2 14.2 78.6 39 12 20.7 12.6 46.6 1.7 73-11.5 27.9-34.1 52.6-63.7 69.7-24.2 14-50.5 21.4-76 21.4z" fill="#9AD665" p-id="1107"></path><path d="M368.3 230.1c29.5 0 52.8 11.2 64.1 30.7 20.6 35.6-5 90.5-55.9 119.9-21.7 12.5-45.1 19.1-67.7 19.1-29.5 0-52.8-11.2-64.1-30.7-9.3-16.1-9.6-36.8-0.7-58.3 10.1-24.5 30.2-46.4 56.6-61.6 21.7-12.5 45.1-19.1 67.7-19.1m0-33.4c-27.3 0-56.8 7.7-84.4 23.6-67.8 39.2-98.3 113.3-68.1 165.6 17.9 31 53.2 47.4 93.1 47.4 27.3 0 56.8-7.7 84.4-23.6 67.8-39.2 98.3-113.3 68.1-165.6-18-31.1-53.2-47.4-93.1-47.4z" fill="#454A57" p-id="1108"></path><path d="M735.5 422.4c-25 0-50.7-7.2-74.3-20.9-28.9-16.7-51.1-40.9-62.3-68.1-10.6-25.7-10-51 1.7-71.2 14-24.2 41.9-38.1 76.7-38.1 25 0 50.7 7.2 74.3 20.9 58.3 33.7 85.5 96.2 60.6 139.3-14 24.2-41.9 38.1-76.7 38.1z" fill="#9AD665" p-id="1109"></path><path d="M677.3 240.8c22 0 44.8 6.4 65.9 18.6 49.5 28.6 74.4 81.9 54.5 116.5-10.9 18.9-33.6 29.7-62.2 29.7-22 0-44.8-6.4-65.9-18.6-49.5-28.6-74.4-81.9-54.5-116.5 10.9-18.8 33.5-29.7 62.2-29.7m0-33.4c-39.1 0-73.6 16-91.2 46.4-29.6 51.2 0.3 123.8 66.7 162.2 27 15.6 55.9 23.1 82.7 23.1 39.1 0 73.6-16 91.2-46.4 29.6-51.2-0.3-123.8-66.7-162.2-27.1-15.6-56-23.1-82.7-23.1z" fill="#454A57" p-id="1110"></path><path d="M520.6 404.8c-67.4 0-122.2-40.5-122.2-90.4S453.2 224 520.6 224s122.2 40.5 122.2 90.4-54.8 90.4-122.2 90.4z" fill="#9AD665" p-id="1111"></path><path d="M520.6 240.8c57.1 0 105.4 33.7 105.4 73.6S577.7 388 520.6 388c-57.1 0-105.4-33.7-105.4-73.6s48.3-73.6 105.4-73.6m0-33.4c-76.7 0-138.9 48-138.9 107.1 0 59.1 62.2 107.1 138.9 107.1s138.9-48 138.9-107.1c0-59.2-62.2-107.1-138.9-107.1z" fill="#454A57" p-id="1112"></path></svg>